<svg width="34" height="34" viewBox="0 0 34 34" fill="none" xmlns="http://www.w3.org/2000/svg">
<rect width="34" height="34" rx="8" fill="#04646A"/>
<path d="M7.69693 16.2045C6.83306 16.2045 6.20047 16.9868 6.41368 17.7914L7.80523 23.0414L7.82042 23.0938C7.98784 23.6296 8.50197 24 9.08847 24H14.9617L15.0075 23.9989C15.4764 23.978 15.8663 23.6374 15.9288 23.1861C16.0792 22.1008 17.7125 22.1008 17.8628 23.1861C17.9253 23.6374 18.3154 23.9781 18.7843 23.9989L18.8299 24H24.5721C25.1476 24 25.655 23.643 25.8314 23.1206L25.8474 23.0695L27.3723 17.8195C27.608 17.0082 26.9734 16.2046 26.097 16.2045H7.69693ZM23.5669 21.4545H19.9982C18.6556 19.284 15.1363 19.284 13.7936 21.4545H10.1175L9.40059 18.75H24.3524L23.5669 21.4545Z" fill="white"/>
<path d="M21.7903 10C23.4078 10 26.2071 11.5516 26.6289 16.3624C26.6903 17.0628 26.0896 17.6364 25.3583 17.6364H18.0758C17.3445 17.6364 16.7439 17.0627 16.808 16.3625C17.2489 11.5517 20.1727 10 21.7903 10Z" fill="white"/>
<path d="M12.1903 10C13.8078 10 16.6071 11.5516 17.0289 16.3624C17.0903 17.0628 16.4896 17.6364 15.7583 17.6364H8.47579C7.74449 17.6364 7.14386 17.0627 7.20803 16.3625C7.64894 11.5517 10.5727 10 12.1903 10Z" fill="white"/>
<path d="M29 17.4773C29 16.7744 28.4072 16.2045 27.6759 16.2045H6.32414C5.59284 16.2045 5 16.7744 5 17.4773C5 18.1802 5.59284 18.75 6.32414 18.75H27.6759C28.4072 18.75 29 18.1802 29 17.4773Z" fill="white"/>
</svg>
